#!OML:ASF H:\Terrain\Patient Classification 1\Walking\steve\steve.ASF
:FULLY-SPECIFIED
:DEGREES
16
root 7.47438 14.9186 -36.5802 7.17072 4.00022 4.71443
lowerback 1.71599 -0.981753 -5.04741
upperback -2.75022 -1.46013 0.963363
thorax -3.657 -0.570808 3.89827
lowerneck -9.79181 -0.6587 -3.0102
upperneck 13.6775 -0.751149 2.2287
head 5.76282 -0.354671 1.13733
rclavicle -4.09993e-015 5.80451e-014
rhumerus -83.3629 -37.1577 -13.7324
rradius 13.2444
rwrist 59.3501
rhand -17.3283 -36.0469
rfingers 7.12502
rthumb 8.91852 -65.8384
lclavicle -4.09993e-015 5.80451e-014
lhumerus -17.2684 -13.8535 88.0669
lradius 49.5537
lwrist 19.2931
lhand -28.5298 -19.2713
lfingers 7.12502
lthumb -1.89762 10.7
rfemur -46.185 -3.62593 21.7674
rtibia 25.3107
rfoot -9.52919 8.83889
rtoes -2.39058
lfemur 18.9583 -0.966519 -29.5221
ltibia 7.63333e-014
lfoot -9.0191 -8.17622
ltoes 1.48371
17
root 7.48668 14.8829 -36.3336 7.02777 3.84162 4.16675
lowerback 1.93136 -0.93655 -4.31101
upperback -2.77623 -1.37971 1.07595
thorax -3.82475 -0.545012 3.60229
lowerneck -9.6611 -0.681778 -3.28024
upperneck 13.3304 -0.761334 2.37277
head 5.63356 -0.362644 1.22515
rclavicle -2.49475e-014 7.15625e-015
rhumerus -84.2986 -37.097 -12.553
rradius 13.1631
rwrist 60.3822
rhand -18.0879 -34.3496
rfingers 7.12502
rthumb 8.18549 -64.1711
lclavicle -2.49475e-014 7.15625e-015
lhumerus -17.9004 -13.3345 87.901
lradius 50.6688
lwrist 19.3921
lhand -27.8307 -19.8447
lfingers 7.12502
lthumb -1.22237 10.1316
rfemur -45.6812 -2.57749 22.0001
rtibia 26.8225
rfoot -9.67955 7.08307
rtoes -6.7652
lfemur 20.1212 -0.847665 -28.9562
ltibia -2.8625e-014
lfoot -8.63732 -7.3993
ltoes -6.95128
18
root 7.50214 14.8815 -36.0643 6.89935 3.62495 4.13639
lowerback 1.6719 -0.908155 -3.97595
upperback -2.61105 -1.31912 0.971509
thorax -3.51949 -0.536222 3.2941
lowerneck -9.81036 -0.575801 -3.18185
upperneck 13.257 -0.622809 2.34097
head 5.63151 -0.291516 1.20928
rclavicle -2.43263e-014 2.38542e-015
rhumerus -87.8544 -37.7811 -6.99886
rradius 12.8662
rwrist 65.0288
rhand -19.388 -30.8899
rfingers 7.12502
rthumb 6.93064 -60.7565
lclavicle -2.43263e-014 2.38542e-015
lhumerus -18.4309 -13.3219 87.5246
lradius 51.675
lwrist 20.4188
lhand -26.7485 -19.7662
lfingers 7.12502
lthumb -0.177207 10.2135
rfemur -45.2713 -2.17309 22.0307
rtibia 28.4194
rfoot -8.00563 5.9023
rtoes -13.9602
lfemur 21.2753 -0.726868 -28.9378
ltibia -6.99722e-014
lfoot -7.85171 -6.7866
ltoes -16.444
19
root 7.51623 14.8945 -35.7872 6.7872 3.29949 3.97038
lowerback 1.52972 -0.870382 -3.65631
upperback -2.54701 -1.24758 1.0984
thorax -3.38142 -0.511458 3.2387
lowerneck -10.1974 -0.421508 -2.8541
upperneck 13.6378 -0.366998 1.72982
head 5.80869 -0.195038 0.984306
rclavicle -1.77415e-014 1.98785e-014
rhumerus -89.1394 -38.1767 -4.49313
rradius 12.8281
rwrist 66.6782
rhand -18.934 -30.4599
rfingers 7.12502
rthumb 7.36888 -60.3116
lclavicle -1.77415e-014 1.98785e-014
lhumerus -18.8479 -12.2697 87.5277
lradius 52.0747
lwrist 20.9393
lhand -25.9108 -19.9364
lfingers 7.12502
lthumb 0.631909 10.0424
rfemur -45.128 -1.1287 21.7947
rtibia 30.0652
rfoot -5.7926 5.02403
rtoes -14.1462
lfemur 22.1344 -0.537565 -28.5817
ltibia -4.45278e-014
lfoot -4.92369 -7.26613
ltoes -8.94175
